<?xml version="1.0" encoding="UTF-8"?>
<svg xmlns="http://www.w3.org/2000/svg" viewBox="0 0 900 1125" preserveAspectRatio="xMidYMid meet" role="img" aria-label="Placeholder — silhouette de kaftan indigo profond">
  <defs>
    <radialGradient id="iBg" cx="50%" cy="45%" r="60%">
      <stop offset="0%" stop-color="#1B2951" stop-opacity="0.18"/>
      <stop offset="100%" stop-color="#0A0A0A" stop-opacity="0"/>
    </radialGradient>
    <linearGradient id="iFabric" x1="0" y1="0" x2="0" y2="1">
      <stop offset="0%" stop-color="#2E4486"/>
      <stop offset="50%" stop-color="#1B2951"/>
      <stop offset="100%" stop-color="#0A1020"/>
    </linearGradient>
    <linearGradient id="iLustre" x1="0" y1="0" x2="1" y2="0">
      <stop offset="0%" stop-color="#1B2951" stop-opacity="0"/>
      <stop offset="50%" stop-color="#4F6BAE" stop-opacity="0.18"/>
      <stop offset="100%" stop-color="#1B2951" stop-opacity="0"/>
    </linearGradient>
  </defs>
  <rect width="900" height="1125" fill="#0A0A0A"/>
  <rect width="900" height="1125" fill="url(#iBg)"/>
  <path d="M 450 150 L 620 330 L 720 1050 L 180 1050 L 280 330 Z" fill="url(#iFabric)"/>
  <rect x="370" y="330" width="160" height="720" fill="url(#iLustre)"/>
  <ellipse cx="450" cy="165" rx="85" ry="28" fill="#050810"/>
  <g fill="#C9A961">
    <circle cx="450" cy="360" r="4"/>
    <circle cx="450" cy="400" r="3"/>
    <circle cx="450" cy="440" r="3"/>
    <circle cx="450" cy="500" r="4"/>
    <circle cx="450" cy="560" r="3"/>
    <circle cx="450" cy="620" r="3"/>
    <circle cx="450" cy="680" r="3"/>
    <circle cx="450" cy="740" r="3"/>
    <circle cx="450" cy="800" r="3"/>
  </g>
  <g fill="#C9A961" opacity="0.6">
    <circle cx="320" cy="980" r="2"/>
    <circle cx="380" cy="995" r="2.5"/>
    <circle cx="450" cy="1000" r="3"/>
    <circle cx="520" cy="995" r="2.5"/>
    <circle cx="580" cy="980" r="2"/>
  </g>
</svg>
