<?xml version="1.0" encoding="UTF-8"?>
<svg xmlns="http://www.w3.org/2000/svg" viewBox="0 0 900 1125" preserveAspectRatio="xMidYMid meet" role="img" aria-label="Placeholder — silhouette de kaftan ivoire">
  <defs>
    <radialGradient id="ivBg" cx="50%" cy="45%" r="60%">
      <stop offset="0%" stop-color="#F5F0E6" stop-opacity="0.14"/>
      <stop offset="100%" stop-color="#0A0A0A" stop-opacity="0"/>
    </radialGradient>
    <linearGradient id="ivFabric" x1="0" y1="0" x2="0" y2="1">
      <stop offset="0%" stop-color="#F5F0E6"/>
      <stop offset="55%" stop-color="#D9CDA8"/>
      <stop offset="100%" stop-color="#7B6352"/>
    </linearGradient>
    <linearGradient id="ivLustre" x1="0" y1="0" x2="1" y2="0">
      <stop offset="0%" stop-color="#F5F0E6" stop-opacity="0"/>
      <stop offset="50%" stop-color="#FDFBF6" stop-opacity="0.35"/>
      <stop offset="100%" stop-color="#F5F0E6" stop-opacity="0"/>
    </linearGradient>
  </defs>
  <rect width="900" height="1125" fill="#0A0A0A"/>
  <rect width="900" height="1125" fill="url(#ivBg)"/>
  <path d="M 450 150 L 620 330 L 720 1050 L 180 1050 L 280 330 Z" fill="url(#ivFabric)"/>
  <rect x="370" y="330" width="160" height="720" fill="url(#ivLustre)"/>
  <ellipse cx="450" cy="165" rx="85" ry="28" fill="#2B2017"/>
  <g fill="#C9A961" opacity="0.85">
    <circle cx="450" cy="360" r="3.5"/>
    <circle cx="450" cy="420" r="2.5"/>
    <circle cx="450" cy="480" r="2.5"/>
    <circle cx="450" cy="540" r="3"/>
    <circle cx="450" cy="620" r="2.5"/>
    <circle cx="450" cy="700" r="2.5"/>
    <circle cx="450" cy="780" r="3"/>
  </g>
  <g stroke="#4A3728" stroke-width="0.5" fill="none" opacity="0.35">
    <line x1="310" y1="360" x2="305" y2="1050"/>
    <line x1="590" y1="360" x2="595" y2="1050"/>
  </g>
</svg>
