<?xml version="1.0" encoding="UTF-8"?>
<svg xmlns="http://www.w3.org/2000/svg" viewBox="0 0 900 1125" preserveAspectRatio="xMidYMid meet" role="img" aria-label="Placeholder — silhouette de kaftan or sahélien">
  <defs>
    <radialGradient id="oBg" cx="50%" cy="45%" r="60%">
      <stop offset="0%" stop-color="#C9A961" stop-opacity="0.18"/>
      <stop offset="100%" stop-color="#0A0A0A" stop-opacity="0"/>
    </radialGradient>
    <linearGradient id="oFabric" x1="0" y1="0" x2="0" y2="1">
      <stop offset="0%" stop-color="#DABE6E"/>
      <stop offset="50%" stop-color="#B48F43"/>
      <stop offset="100%" stop-color="#6C5326"/>
    </linearGradient>
    <linearGradient id="oLustre" x1="0" y1="0" x2="1" y2="0">
      <stop offset="0%" stop-color="#C9A961" stop-opacity="0"/>
      <stop offset="50%" stop-color="#F2E9CE" stop-opacity="0.28"/>
      <stop offset="100%" stop-color="#C9A961" stop-opacity="0"/>
    </linearGradient>
  </defs>
  <rect width="900" height="1125" fill="#0A0A0A"/>
  <rect width="900" height="1125" fill="url(#oBg)"/>
  <path d="M 450 150 L 620 330 L 720 1050 L 180 1050 L 280 330 Z" fill="url(#oFabric)"/>
  <rect x="370" y="330" width="160" height="720" fill="url(#oLustre)"/>
  <ellipse cx="450" cy="165" rx="85" ry="28" fill="#241B0D"/>
  <g fill="#241B0D" opacity="0.6">
    <circle cx="450" cy="360" r="4"/>
    <circle cx="420" cy="400" r="2.5"/>
    <circle cx="480" cy="400" r="2.5"/>
    <circle cx="450" cy="450" r="3"/>
    <circle cx="450" cy="520" r="3"/>
    <circle cx="450" cy="600" r="3"/>
    <circle cx="450" cy="680" r="3"/>
    <circle cx="450" cy="760" r="3"/>
  </g>
  <g fill="#6C5326" opacity="0.7">
    <circle cx="320" cy="980" r="2"/>
    <circle cx="380" cy="995" r="2.5"/>
    <circle cx="450" cy="1000" r="3"/>
    <circle cx="520" cy="995" r="2.5"/>
    <circle cx="580" cy="980" r="2"/>
  </g>
</svg>
