<?xml version="1.0" encoding="utf-8"?>
<!-- Generator: Adobe Illustrator 23.0.2, SVG Export Plug-In . SVG Version: 6.00 Build 0)  -->
<svg version="1.1" id="Layer_1" xmlns="http://www.w3.org/2000/svg" xmlns:xlink="http://www.w3.org/1999/xlink" x="0px" y="0px"
	 viewBox="0 0 841.89 595.28" style="enable-background:new 0 0 841.89 595.28;" xml:space="preserve">
<style type="text/css">
	.st0{stroke:#000000;stroke-width:1.5;stroke-miterlimit:10;}
</style>
<g>
	<path d="M134.23,269.67c14.08-5.89,28.35-7.67,39.96-5.53c8.61,1.61,15.84,6.25,14.26,14.82c-1.02,5.89-7.97,13.03-15.85,13.03
		c-5.18,0-8.44-2.86-7.12-6.79c1.1-3.75,6.71-6.78,11.71-6.78c1.34,0,2.47,0.17,3.38,0.53c4.96-6.6,0.53-10.71-5.8-12.14
		c-10.22-2.5-24.14,2.32-38.04,9.64c-24.08,12.85-53.24,41.42-65.26,68.37c-18.71,41.78,16.45,49.99,58.13,28.03
		c15.77-8.39,30.51-21.78,42.35-34.99c1.16-1.43,2.57-0.53,1.44,0.71c-12.83,14.82-26.24,26.96-41.9,35.89
		c-15.87,9.1-34.15,14.82-47.14,14.28c-25.02-1.07-37.95-17.14-28.84-42.49c10.36-28.74,46.91-62.13,75.44-75.16
		c0.19,0,0.41-0.18,0.63-0.36 M53.16,319.12"/>
	<path d="M187.47,335.54c8.66-6.96,19.3-13.03,26.22-13.03c5.57,0,10.24,6.43-0.69,21.42l-18.26,24.82
		c-8.05,10.89,2.01,6.25,10.42,1.07c7.37-4.64,17.91-14.1,25-23.56c1.16-1.43,2.38-0.53,1.44,0.71
		c-15.2,19.46-33.96,32.67-44.91,32.67c-5.76,0-10.05-6.43,0.88-21.43l18.23-24.63c7.35-10-0.63-7.86-11.02-0.89
		c-5.08,3.39-10.94,8.21-15.61,14.1l-23.65,31.78c-5.57,0-12.2-3.39-4.39-13.93l30.11-40.88c2.85-3.79,5.6-7.52,8.3-11.15
		c21.67-29.21,39.73-52.86,74.21-63.66c27.3-8.39,48.05-0.61,53.66,17.49c3.31,10.68-5.8,9.99-5.7,10.53
		c-4.62-24.47-21.83-30.47-45.92-23.38c-28.74,8.45-44.33,33.04-61.91,59.02c-3.76,5.55-7.6,11.16-11.69,16.69L187.47,335.54z"/>
	<path d="M273.66,333.5c6.99-8.75,12.7-9.82,21.92-9.82l-33.2,45.17c-8.05,10.89,1.82,6.25,10.42,1.07
		c7.56-4.64,17.73-14.1,25-23.57c1.16-1.43,2.38-0.53,1.43,0.71c-15.21,19.46-33.95,32.67-44.91,32.67c-4.42,0-7.93-3.75-4.43-12.32
		c-8.21,7.86-16.32,12.32-23.43,12.32c-13.37-0.53-10.34-15.35-0.62-28.56c8.78-11.96,28.16-31.06,43.18-28.56
		C273.9,323.51,275.27,327.43,273.66,333.5z M240.86,351c-10.66,14.46-14.83,24.99-8.1,24.99c5,0,17.23-10.53,27.89-24.99
		c10.67-14.46,13.96-24.28,8.58-24.28C264.2,326.9,251.52,336.54,240.86,351z"/>
	<path d="M370.74,333.57c7.35-10-0.25-7.86-10.82-0.89c-5.08,3.39-10.75,8.21-15.78,13.93l-23.29,31.96
		c-5.77,0-12.39-3.39-4.58-13.93l22.78-31.06c7.35-10-0.63-7.86-11.02-0.89c-5.08,3.39-10.97,8.39-15.8,14.1l-23.46,31.78
		c-5.57,0-12.01-3.39-4.39-13.93l30.14-41.06c5.38,0,11.63,3.39,5.34,12.67c8.68-7.14,19.98-13.74,27.09-13.74
		c4.8,0,8.6,4.46,3.31,14.82l1.49-1.07c8.68-7.14,19.79-13.74,27.09-13.74c5.58,0,10.25,6.43-0.88,21.42l-18.07,24.82
		c-8.25,10.89,1.82,6.25,10.22,1.07c7.76-4.64,17.92-14.1,25-23.56c1.36-1.43,2.57-0.53,1.44,0.71
		c-15.01,19.46-33.77,32.67-44.91,32.67c-5.57,0-10.05-6.43,0.88-21.43L370.74,333.57z"/>
	<path d="M405.64,345.55c-3.16-10.36,4.13-24.1,22.81-23.03c8.76,0.53,12.92,5.18,12.99,10.17c-0.05,5.89-5.89,10.53-12.04,10.53
		c-4.03,0-6.76-2.5-5.71-5.89c1.27-3.57,5.46-6.07,9.5-6.07c0.96,0,1.89,0.18,2.64,0.36c2.38-10.18-18.61-9.82-19.27,1.79
		c-0.37,6.78,4.94,15.53,6.29,23.74c1.52,8.39-2.89,15.17-11.75,19.46c-6.98,3.21-14.35,3.75-20.11,2.32
		c-11.35-2.67-15.74-15.17-8.1-25.89c2.66-3.93,9.46-8.57,16.25-7.67c-3.75,4.82-11.02,12.85-17.63,18.92
		c0.12,8.75,8.46,13.75,16.99,11.78c7.91-1.61,13.85-8.39,10.38-19.28L405.64,345.55z"/>
	<path d="M753.23,372.66c-3.16-10.36,4.13-24.1,22.81-23.03c8.76,0.53,12.92,5.18,12.99,10.17c-0.05,5.89-5.89,10.53-12.04,10.53
		c-4.03,0-6.76-2.5-5.71-5.89c1.27-3.57,5.46-6.07,9.5-6.07c0.96,0,1.9,0.18,2.64,0.36c2.38-10.18-18.61-9.82-19.27,1.79
		c-0.37,6.78,4.94,15.53,6.29,23.74c1.52,8.39-2.89,15.17-11.75,19.46c-6.98,3.21-14.35,3.75-20.11,2.32
		c-11.35-2.67-15.75-15.17-8.1-25.89c2.66-3.93,9.46-8.57,16.25-7.67c-3.75,4.82-11.02,12.85-17.63,18.92
		c0.12,8.75,8.46,13.75,16.99,11.78c7.91-1.61,13.85-8.39,10.37-19.28L753.23,372.66z"/>
</g>
<g>
	<g>
		<path d="M451.05,367.27l25.8-25.38c8.7-8.63,19.67-18.44,30.4-24.84l2.31-1.35c8.72-4.69,13.36-7.83,23.41-4.9l-0.18,0.21
			c2.78-2.81,7.1-6.11,14.67-6.92l-52.96,92.01c-6.84,11.5,2.93,7.64,11.12,1.93c4.07-2.84,6.86-4.98,7.12-5.39l1.5,0.37
			c-1.77,2.03-12.11,12.68-21.12,15.33c-3.66,1.08-8.13,0.43-10.52-2.68c-2.4-2.74-2.85-8.87,3.01-19.04l9.22-15.48l2.69-4.69
			l17.76-29.63c14.44-23.79,18.24-24.28,15.89-24.44c-7.97-0.57-24.09,14.87-37.85,28.69l-32.88,33.36l-4.24,4.16"/>
		<path d="M473.71,361.33c-23.42,23.27-47.93,47.5-85.63,56.63c-4.15,1-8.46,2.17-12.52,2.88l-7.49,1.08
			c-19.99,2.06-38.33-2.1-46.76-17.33c-2.21-3.77-2.14-10.46,5.32-12.3c1.13,22.63,20.36,27.31,40.53,25.26l7.71-1.26
			c4.06-0.71,8.24-1.99,12.05-3.29c29.18-10.49,52.84-33.69,75.75-57.17 M442.35,344.35 M476.76,358.26
			c-0.23,0.18-0.26,0.37-0.45,0.36"/>
	</g>
	<path d="M599.13,335.7c-5,7.06-9.74,13.97-14.19,20.38l-27.89,40.24c-7.71,11.11,3.4,6.74,11.43,1.09
		c7.07-5.28,17.04-14.39,23.82-24.04c1.11-1.46,2.25-0.55,1.35,0.73c-7.84,10.74-17.44,19.85-25.54,26.04
		c-5.81,4.01-20.92,12.38-23.86,3.64c-0.63-2-0.58-4.92,1.04-8.74c-7.79,7.83-15.49,12.38-22.19,12.38
		c-12.6-0.55-9.58-15.66-0.27-29.14c8.4-12.2,26.87-31.68,41-29.13c4.61,0.73,5.83,4.91,4.27,10.92l6.6-9.65
		c3.01-4.27,6.13-8.59,9.37-12.89 M536.97,378.11c-10.21,14.75-14.24,25.49-7.91,25.49c4.71,0,16.34-10.74,26.55-25.49
		c10.21-14.75,13.42-24.77,8.35-24.77C559.23,353.53,547.18,363.36,536.97,378.11z"/>
	<path d="M630.7,360.27c6.68-8.92,12.08-10.01,20.77-10.01l-31.78,46.07c-7.71,11.11,1.64,6.37,9.8,1.09
		c7.18-4.74,16.86-14.39,23.82-24.04c1.11-1.46,2.25-0.55,1.35,0.73c-14.54,19.85-32.35,33.32-42.67,33.32
		c-4.16,0-7.43-3.82-4.04-12.56c-7.82,8.01-15.52,12.56-22.21,12.56c-12.6-0.55-9.58-15.66-0.27-29.14
		c8.4-12.2,26.87-31.68,41-29.13C631.04,350.07,632.29,354.07,630.7,360.27z M599.6,378.11c-10.21,14.75-14.24,25.49-7.91,25.49
		c4.71,0,16.34-10.74,26.55-25.49c10.21-14.75,13.42-24.77,8.35-24.77C621.86,353.53,609.81,363.36,599.6,378.11z"/>
	<path d="M720.27,360.45c7.04-10.2-0.14-8.01-10.19-0.91c-4.83,3.46-10.22,8.38-15.02,14.2l-22.29,32.6
		c-5.43,0-11.65-3.46-4.17-14.2l21.8-31.69c7.04-10.2-0.51-8.01-10.37-0.91c-4.83,3.46-10.43,8.56-15.04,14.39l-22.45,32.41
		c-5.25,0-11.28-3.46-3.99-14.2l28.84-41.88c5.07,0,10.92,3.46,4.89,12.93c8.26-7.28,18.97-14.02,25.67-14.02
		c4.53,0,8.06,4.55,2.96,15.11l1.42-1.09c8.26-7.28,18.79-14.02,25.67-14.02c5.25,0,9.58,6.55-1.06,21.85l-17.29,25.31
		c-7.89,11.11,1.64,6.37,9.62,1.09c7.36-4.74,17.03-14.39,23.82-24.04c1.29-1.46,2.43-0.55,1.35,0.73
		c-14.36,19.85-32.17,33.32-42.67,33.32c-5.25,0-9.4-6.56,1.06-21.85L720.27,360.45z"/>
	<line class="st0" x1="464.47" y1="366.88" x2="501.71" y2="366.88"/>
</g>
<path d="M575.38,349.45c2.85-3.79,5.71-8.34,8.41-11.97c21.67-29.21,39.73-52.86,74.2-63.66c27.3-8.39,48.05-0.61,53.66,17.49
	c3.31,10.68-5.8,9.99-5.7,10.53c-4.62-24.47-21.83-30.47-45.92-23.38c-28.73,8.45-44.33,33.04-61.91,59.02
	c-3.76,5.55-8.26,11.84-12.34,17.37"/>
</svg>
